<?xml version="1.0" standalone="no"?>
<!DOCTYPE svg PUBLIC "-//W3C//DTD SVG 20010904//EN"
 "http://www.w3.org/TR/2001/REC-SVG-20010904/DTD/svg10.dtd">
<svg version="1.0" xmlns="http://www.w3.org/2000/svg"
 width="700.000000pt" height="700.000000pt" viewBox="0 0 700.000000 700.000000"
 preserveAspectRatio="xMidYMid meet">
<metadata>
Created by potrace 1.11, written by Peter Selinger 2001-2013
</metadata>
<g transform="translate(0.000000,700.000000) scale(0.100000,-0.100000)"
fill="#000000" stroke="none">
<path d="M0 3500 l0 -3500 3500 0 3500 0 0 3500 0 3500 -3500 0 -3500 0 0
-3500z m6830 0 l0 -3330 -3330 0 -3330 0 0 3330 0 3330 3330 0 3330 0 0 -3330z"/>
<path d="M2994 5666 c-53 -23 -168 -129 -526 -485 l-348 -345 -89 12 c-139 19
-171 16 -224 -17 -59 -38 -335 -307 -393 -384 -48 -64 -56 -101 -24 -110 32
-8 103 45 250 189 l139 136 48 -40 c26 -22 61 -54 77 -71 l29 -30 -151 -156
c-189 -194 -229 -259 -175 -279 29 -11 100 43 257 195 l157 152 30 -29 c17
-16 49 -51 71 -77 l41 -48 -70 -72 c-157 -163 -243 -270 -243 -304 0 -7 9 -17
20 -23 17 -9 28 -7 54 9 47 30 371 362 406 418 34 54 37 85 18 225 l-12 89
346 347 c490 493 508 517 462 632 -12 29 -27 46 -55 60 -45 23 -54 24 -95 6z
m72 -111 c10 -26 -194 -260 -443 -510 -123 -124 -149 -146 -172 -143 -36 4
-40 45 -8 95 87 138 545 573 603 573 8 0 17 -7 20 -15z m-730 -710 c10 -26 -4
-59 -61 -145 -61 -92 -65 -115 -35 -181 19 -43 26 -99 14 -112 -13 -13 -68 27
-168 124 -114 109 -186 196 -186 224 0 15 6 16 38 10 20 -3 57 -15 81 -26 73
-32 99 -26 172 37 57 50 108 82 132 84 4 0 10 -7 13 -15z"/>
<path d="M5119 5121 c-100 -67 -364 -324 -1570 -1530 -1394 -1395 -1558 -1565
-1584 -1649 -11 -38 20 -38 78 0 105 70 348 307 1603 1562 1191 1192 1456
1464 1527 1568 52 78 26 102 -54 49z"/>
<path d="M4655 2723 c-102 -12 -115 -15 -115 -28 0 -8 11 -17 25 -20 14 -3 36
-7 49 -10 48 -10 51 -41 51 -530 0 -507 -1 -515 -66 -573 -36 -32 -38 -37 -22
-46 11 -6 182 -12 436 -14 l417 -4 0 113 c0 120 -13 193 -33 186 -13 -4 -23
-32 -32 -89 -7 -48 -44 -91 -97 -114 -35 -15 -78 -19 -241 -22 l-199 -4 6 154
c4 84 9 199 12 254 l6 101 161 5 c166 5 217 16 217 43 0 27 -47 35 -226 42
l-174 6 0 250 0 250 183 -6 c260 -8 299 -24 320 -132 8 -41 17 -61 28 -63 25
-5 31 22 37 146 l5 112 -359 -1 c-198 -1 -372 -4 -389 -6z"/>
</g>
</svg>
