<?xml version="1.0" encoding="UTF-8" standalone="no"?>
<!-- Created with Inkscape (http://www.inkscape.org/) -->

<svg
   xmlns:dc="http://purl.org/dc/elements/1.1/"
   xmlns:cc="http://creativecommons.org/ns#"
   xmlns:rdf="http://www.w3.org/1999/02/22-rdf-syntax-ns#"
   xmlns:svg="http://www.w3.org/2000/svg"
   xmlns="http://www.w3.org/2000/svg"
   xmlns:sodipodi="http://sodipodi.sourceforge.net/DTD/sodipodi-0.dtd"
   xmlns:inkscape="http://www.inkscape.org/namespaces/inkscape"
   viewBox="0 0 55.562492 55.562492"
   version="1.1"
   id="svg3741"
   inkscape:version="0.92.3 (2405546, 2018-03-11)"
   sodipodi:docname="logo.svg">
  <defs
     id="defs3735" />
  <sodipodi:namedview
     id="base"
     pagecolor="#ffffff"
     bordercolor="#666666"
     borderopacity="1.0"
     inkscape:pageopacity="0.0"
     inkscape:pageshadow="2"
     inkscape:zoom="11.2"
     inkscape:cx="23.708163"
     inkscape:cy="31.245709"
     inkscape:document-units="mm"
     inkscape:current-layer="layer1"
     showgrid="false"
     inkscape:window-width="1920"
     inkscape:window-height="1017"
     inkscape:window-x="-8"
     inkscape:window-y="-8"
     inkscape:window-maximized="1"
     showguides="true"
     inkscape:guide-bbox="true">
    <sodipodi:guide
       position="-8.3035714,94.375"
       orientation="0,1"
       id="guide4597"
       inkscape:locked="false" />
  </sodipodi:namedview>
  <metadata
     id="metadata3738">
    <rdf:RDF>
      <cc:Work
         rdf:about="">
        <dc:format>image/svg+xml</dc:format>
        <dc:type
           rdf:resource="http://purl.org/dc/dcmitype/StillImage" />
        <dc:title />
      </cc:Work>
    </rdf:RDF>
  </metadata>
  <g
     inkscape:label="Layer 1"
     inkscape:groupmode="layer"
     id="layer1"
     transform="translate(-74.272327,-87.034227)">
    <path
       style="stroke-width:0.26458338"
       d="m 110.71868,130.24746 c 0.57492,-0.40106 0.59531,-0.55911 0.59531,-4.61633 0,-4.02468 -0.0222,-4.20107 -0.52917,-4.20107 -0.29104,0 -0.52917,-0.11906 -0.52917,-0.26459 0,-0.16281 1.32292,-0.26457 3.43959,-0.26457 h 3.43958 v 1.05832 c 0,0.58209 -0.11906,1.05834 -0.26458,1.05834 -0.14552,0 -0.26459,-0.21431 -0.26459,-0.47625 0,-0.83257 -0.57724,-1.11125 -2.30187,-1.11125 h -1.66688 v 1.98438 1.98437 h 1.5875 c 1.11034,0 1.5875,0.10142 1.5875,0.33739 0,0.23513 -0.46115,0.33537 -1.52135,0.33073 l -1.52135,-0.007 -0.0773,2.05052 -0.0773,2.05052 h 1.71202 c 1.82677,0 2.54357,-0.37813 2.54357,-1.34181 0,-0.28065 0.11906,-0.51027 0.26458,-0.51027 0.14552,0 0.26458,0.53578 0.26458,1.19063 v 1.19062 l -3.63802,-0.0139 c -3.38401,-0.0129 -3.59646,-0.0429 -3.0427,-0.42915 z m -20.835633,-2.8639 c -0.31871,-0.38403 1.08995,-1.88258 12.448773,-13.24321 11.38992,-11.39173 12.85214,-12.76621 13.20537,-12.41298 0.35323,0.35324 -1.02521,1.81964 -12.44878,13.24321 -11.425263,11.42527 -12.885743,12.79811 -13.205363,12.41298 z m -0.92138,-15.73503 c -0.0872,-0.1411 0.43616,-0.8833 1.16303,-1.64934 l 1.32159,-1.39281 -0.56927,-0.60595 -0.56926,-0.60595 -1.53294,1.51694 c -1.20542,1.19285 -1.60184,1.44805 -1.85542,1.19448 -0.25357,-0.25358 0.002,-0.65 1.19448,-1.85542 l 1.51695,-1.53294 -0.61501,-0.57777 -0.61501,-0.57777 -1.29961,1.31945 c -0.71479,0.7257 -1.45291,1.31945 -1.64029,1.31945 -0.73669,0 -0.26018,-0.78464 1.52051,-2.50376 1.81756,-1.75471 1.88731,-1.79327 2.97656,-1.64574 l 1.11538,0.15108 3.46728,-3.43045 c 3.12553,-3.092333 3.52975,-3.407513 4.10104,-3.197763 0.43678,0.16035 0.65719,0.47052 0.70912,0.99788 0.0656,0.66611 -0.35258,1.191438 -3.22919,4.056613 l -3.30456,3.2914 0.15493,1.13027 c 0.15197,1.10879 0.12073,1.16569 -1.64286,2.99246 -1.82282,1.88811 -2.08358,2.06496 -2.36745,1.60564 z m 3.04344,-5.02447 c -0.24103,-0.45037 -0.17199,-0.70401 0.39339,-1.44527 0.87765,-1.15066 0.3914,-1.5606 -0.65826,-0.55496 -0.61885,0.5929 -0.83675,0.66516 -1.28403,0.42578 -0.29627,-0.15856 -0.75114,-0.2883 -1.01082,-0.2883 -0.33095,0 8e-5,0.47798 1.10709,1.5985 1.04757,1.06036 1.60712,1.46586 1.66209,1.20449 0.0456,-0.2167 -0.0487,-0.63981 -0.20946,-0.94024 z m 4.33788,-5.35484 c 1.24905,-1.338575 2.271,-2.529193 2.271,-2.645833 0,-0.58591 -0.8214,1.5e-4 -2.98755,2.131573 -2.11817,2.08421 -2.64014,2.94802 -1.78138,2.94802 0.12481,0 1.24888,-1.09519 2.49793,-2.43376 z"
       id="path3724"
       inkscape:connector-curvature="0"
       sodipodi:nodetypes="csssscsssscccssccccsssscccccscsccsccccccccccscccscccccccccccscccsssss" />
    <path
       sodipodi:nodetypes="cccccccccccccccccc"
       inkscape:connector-curvature="0"
       id="path4595"
       d="M 74.272327,114.81547 V 87.034227 h 27.781243 27.78125 v 27.781243 27.78125 H 102.05357 74.272327 Z m 54.239573,0 V 88.357147 H 102.05357 75.595237 v 26.458323 26.45833 h 26.458333 26.45833 z"
       style="stroke-width:0.26458338" />
  </g>
</svg>
